#tb 0: 1/1
#media_type 0: video
#codec_id 0: fits
#dimensions 0: 72x36
#sar 0: 0/1
0,          0,          0,        1,    23040, 0xfa4ff4f0
0,          1,          1,        1,    23040, 0xf57102d4
0,          2,          2,        1,    23040, 0x58e0294d
0,          3,          3,        1,    23040, 0x8097502a
0,          4,          4,        1,    23040, 0x65fd7b54
